<mxfile host="app.diagrams.net" modified="2022-02-27T09:14:37.957Z" agent="5.0 (Windows NT 10.0; Win64; x64) AppleWebKit/537.36 (KHTML, like Gecko) Chrome/98.0.4758.102 Safari/537.36" etag="5SctcwDKWRPJsVw_7HZg" version="16.6.4" type="github">
  <diagram id="ik4yxwlqKBKsVyiRTqWL" name="Page-1">
    <mxGraphModel dx="1051" dy="547" grid="1" gridSize="10" guides="1" tooltips="1" connect="1" arrows="1" fold="1" page="1" pageScale="1" pageWidth="850" pageHeight="1100" math="0" shadow="0">
      <root>
        <mxCell id="0" />
        <mxCell id="1" parent="0" />
        <mxCell id="U59Nsm6Hn14d-o1NuDl0-8" value="input" style="edgeStyle=orthogonalEdgeStyle;rounded=0;orthogonalLoop=1;jettySize=auto;html=1;entryX=0;entryY=0.5;entryDx=0;entryDy=0;" edge="1" parent="1" source="U59Nsm6Hn14d-o1NuDl0-1" target="U59Nsm6Hn14d-o1NuDl0-6">
          <mxGeometry relative="1" as="geometry" />
        </mxCell>
        <mxCell id="U59Nsm6Hn14d-o1NuDl0-1" value="User" style="rounded=0;whiteSpace=wrap;html=1;" vertex="1" parent="1">
          <mxGeometry x="90" y="60" width="120" height="60" as="geometry" />
        </mxCell>
        <mxCell id="U59Nsm6Hn14d-o1NuDl0-10" value="API request with input image" style="edgeStyle=orthogonalEdgeStyle;rounded=0;orthogonalLoop=1;jettySize=auto;html=1;" edge="1" parent="1" source="U59Nsm6Hn14d-o1NuDl0-6" target="U59Nsm6Hn14d-o1NuDl0-9">
          <mxGeometry relative="1" as="geometry" />
        </mxCell>
        <mxCell id="U59Nsm6Hn14d-o1NuDl0-6" value="Preprocessing" style="rounded=0;whiteSpace=wrap;html=1;" vertex="1" parent="1">
          <mxGeometry x="270" y="60" width="120" height="60" as="geometry" />
        </mxCell>
        <mxCell id="U59Nsm6Hn14d-o1NuDl0-12" value="Serialized API response" style="edgeStyle=orthogonalEdgeStyle;rounded=0;orthogonalLoop=1;jettySize=auto;html=1;" edge="1" parent="1" source="U59Nsm6Hn14d-o1NuDl0-9" target="U59Nsm6Hn14d-o1NuDl0-11">
          <mxGeometry relative="1" as="geometry" />
        </mxCell>
        <mxCell id="U59Nsm6Hn14d-o1NuDl0-14" value="saving input image and mask" style="edgeStyle=orthogonalEdgeStyle;rounded=0;orthogonalLoop=1;jettySize=auto;html=1;" edge="1" parent="1" source="U59Nsm6Hn14d-o1NuDl0-9" target="U59Nsm6Hn14d-o1NuDl0-13">
          <mxGeometry relative="1" as="geometry" />
        </mxCell>
        <mxCell id="U59Nsm6Hn14d-o1NuDl0-9" value="Django backend" style="rounded=0;whiteSpace=wrap;html=1;" vertex="1" parent="1">
          <mxGeometry x="270" y="200" width="120" height="60" as="geometry" />
        </mxCell>
        <mxCell id="U59Nsm6Hn14d-o1NuDl0-17" value="" style="edgeStyle=orthogonalEdgeStyle;rounded=0;orthogonalLoop=1;jettySize=auto;html=1;" edge="1" parent="1" source="U59Nsm6Hn14d-o1NuDl0-11" target="U59Nsm6Hn14d-o1NuDl0-16">
          <mxGeometry relative="1" as="geometry" />
        </mxCell>
        <mxCell id="U59Nsm6Hn14d-o1NuDl0-11" value="Frontend" style="rounded=0;whiteSpace=wrap;html=1;" vertex="1" parent="1">
          <mxGeometry x="270" y="340" width="120" height="60" as="geometry" />
        </mxCell>
        <mxCell id="U59Nsm6Hn14d-o1NuDl0-13" value="Django backend" style="rounded=0;whiteSpace=wrap;html=1;" vertex="1" parent="1">
          <mxGeometry x="540" y="280" width="120" height="60" as="geometry" />
        </mxCell>
        <mxCell id="U59Nsm6Hn14d-o1NuDl0-16" value="Segmented Output image" style="whiteSpace=wrap;html=1;rounded=0;" vertex="1" parent="1">
          <mxGeometry x="100" y="330" width="120" height="60" as="geometry" />
        </mxCell>
        <mxCell id="U59Nsm6Hn14d-o1NuDl0-19" value="input" style="edgeStyle=orthogonalEdgeStyle;rounded=0;orthogonalLoop=1;jettySize=auto;html=1;entryX=0;entryY=0.5;entryDx=0;entryDy=0;" edge="1" parent="1" source="U59Nsm6Hn14d-o1NuDl0-20" target="U59Nsm6Hn14d-o1NuDl0-22">
          <mxGeometry relative="1" as="geometry" />
        </mxCell>
        <mxCell id="U59Nsm6Hn14d-o1NuDl0-20" value="User" style="rounded=0;whiteSpace=wrap;html=1;" vertex="1" parent="1">
          <mxGeometry x="90" y="60" width="120" height="60" as="geometry" />
        </mxCell>
        <mxCell id="U59Nsm6Hn14d-o1NuDl0-21" value="API request with input image" style="edgeStyle=orthogonalEdgeStyle;rounded=0;orthogonalLoop=1;jettySize=auto;html=1;" edge="1" parent="1" source="U59Nsm6Hn14d-o1NuDl0-22" target="U59Nsm6Hn14d-o1NuDl0-25">
          <mxGeometry relative="1" as="geometry" />
        </mxCell>
        <mxCell id="U59Nsm6Hn14d-o1NuDl0-22" value="Preprocessing" style="rounded=0;whiteSpace=wrap;html=1;" vertex="1" parent="1">
          <mxGeometry x="270" y="60" width="120" height="60" as="geometry" />
        </mxCell>
        <mxCell id="U59Nsm6Hn14d-o1NuDl0-23" value="Serialized API response" style="edgeStyle=orthogonalEdgeStyle;rounded=0;orthogonalLoop=1;jettySize=auto;html=1;" edge="1" parent="1" source="U59Nsm6Hn14d-o1NuDl0-25" target="U59Nsm6Hn14d-o1NuDl0-27">
          <mxGeometry relative="1" as="geometry" />
        </mxCell>
        <mxCell id="U59Nsm6Hn14d-o1NuDl0-24" value="saving input image and mask" style="edgeStyle=orthogonalEdgeStyle;rounded=0;orthogonalLoop=1;jettySize=auto;html=1;" edge="1" parent="1" source="U59Nsm6Hn14d-o1NuDl0-25" target="U59Nsm6Hn14d-o1NuDl0-28">
          <mxGeometry relative="1" as="geometry" />
        </mxCell>
        <mxCell id="U59Nsm6Hn14d-o1NuDl0-25" value="Django backend" style="rounded=0;whiteSpace=wrap;html=1;" vertex="1" parent="1">
          <mxGeometry x="270" y="200" width="120" height="60" as="geometry" />
        </mxCell>
        <mxCell id="U59Nsm6Hn14d-o1NuDl0-26" value="" style="edgeStyle=orthogonalEdgeStyle;rounded=0;orthogonalLoop=1;jettySize=auto;html=1;" edge="1" parent="1" source="U59Nsm6Hn14d-o1NuDl0-27" target="U59Nsm6Hn14d-o1NuDl0-29">
          <mxGeometry relative="1" as="geometry" />
        </mxCell>
        <mxCell id="U59Nsm6Hn14d-o1NuDl0-27" value="Frontend" style="rounded=0;whiteSpace=wrap;html=1;" vertex="1" parent="1">
          <mxGeometry x="270" y="340" width="120" height="60" as="geometry" />
        </mxCell>
        <mxCell id="U59Nsm6Hn14d-o1NuDl0-28" value="Django backend" style="rounded=0;whiteSpace=wrap;html=1;" vertex="1" parent="1">
          <mxGeometry x="540" y="280" width="120" height="60" as="geometry" />
        </mxCell>
        <mxCell id="U59Nsm6Hn14d-o1NuDl0-29" value="Segmented Output image" style="whiteSpace=wrap;html=1;rounded=0;" vertex="1" parent="1">
          <mxGeometry x="100" y="330" width="120" height="60" as="geometry" />
        </mxCell>
        <mxCell id="U59Nsm6Hn14d-o1NuDl0-30" value="Fig. System Architecture" style="text;html=1;strokeColor=none;fillColor=none;align=center;verticalAlign=middle;whiteSpace=wrap;rounded=0;" vertex="1" parent="1">
          <mxGeometry x="180" y="430" width="320" height="30" as="geometry" />
        </mxCell>
      </root>
    </mxGraphModel>
  </diagram>
</mxfile>
